<svg preserveAspectRatio="none" width="100%" height="100%" overflow="visible" style="display: block;" viewBox="0 0 24 24" fill="none" xmlns="http://www.w3.org/2000/svg">
<g id="Ai-Network-Spark Streamline Ultimate" clip-path="url(#clip0_0_4)">
<path id="Vector" d="M13.793 5.7213C16.1053 5.25646 17.967 3.37212 18.4326 1C18.8981 3.37212 20.7594 5.25646 23.0717 5.7213M23.0717 5.72401C20.7594 6.18885 18.8977 8.07319 18.4321 10.4453C17.9665 8.07319 16.1053 6.18885 13.793 5.72401" stroke="var(--stroke-0, #4F1C68)" stroke-width="1.5" stroke-linecap="round" stroke-linejoin="round"/>
<path id="Vector_2" d="M10.9922 5.58189C10.5643 5.51766 10.1262 5.48438 9.68018 5.48438C4.85228 5.48438 0.928711 9.39336 0.928711 14.2358V14.2504C0.928711 19.0783 4.8377 23.0019 9.68018 23.0019C14.5081 23.0019 18.4316 19.0929 18.4316 14.2504C18.4316 13.9359 18.4151 13.6252 18.383 13.3193" stroke="var(--stroke-0, #4F1C68)" stroke-width="1.5" stroke-linecap="round" stroke-linejoin="round"/>
<path id="Vector_3" d="M9.68061 5.48438C7.7261 5.48438 6.1377 9.39336 6.1377 14.2358V14.2504C6.1377 19.0783 7.7202 23.0019 9.68061 23.0019C11.6351 23.0019 13.2235 19.0929 13.2235 14.2504C13.2235 13.2998 13.1625 12.3846 13.0497 11.5275" stroke="var(--stroke-0, #4F1C68)" stroke-width="1.5" stroke-linecap="round" stroke-linejoin="round"/>
<path id="Vector_4" d="M0.928711 14.2461H18.4318" stroke="var(--stroke-0, #4F1C68)" stroke-width="1.5" stroke-miterlimit="10" stroke-linecap="round" stroke-linejoin="round"/>
</g>
<defs>
<clipPath id="clip0_0_4">
<rect width="24" height="24" fill="white"/>
</clipPath>
</defs>
</svg>
