<svg width="24" height="24" viewBox="0 0 24 24" fill="none" xmlns="http://www.w3.org/2000/svg">
<g clip-path="url(#clip0_28_1573)">
<path d="M23.25 11.25V4.65001C23.2501 4.35016 23.1602 4.05718 22.9922 3.80888C22.8241 3.56058 22.5854 3.36835 22.307 3.25701L16.307 0.857006C15.9494 0.714006 15.5506 0.714006 15.193 0.857006L8.80701 3.41201C8.44944 3.55501 8.05058 3.55501 7.69301 3.41201L1.77901 1.04601C1.6649 1.00027 1.5413 0.983292 1.41909 0.996554C1.29687 1.00982 1.17979 1.05292 1.07815 1.12206C0.97651 1.1912 0.893422 1.28427 0.836202 1.39308C0.778981 1.50188 0.749382 1.62308 0.75001 1.74601V16.119C0.74996 16.4189 0.839775 16.7118 1.00786 16.9601C1.17595 17.2084 1.4146 17.4007 1.69301 17.512L7.69301 19.912C8.05058 20.055 8.44944 20.055 8.80701 19.912" stroke="#144B3C" stroke-width="1.5" stroke-linecap="round" stroke-linejoin="round"/>
<path d="M8.25 3.51904V11.25" stroke="#144B3C" stroke-width="1.5" stroke-linecap="round" stroke-linejoin="round"/>
<path d="M15.75 0.75V7.5" stroke="#144B3C" stroke-width="1.5" stroke-linecap="round" stroke-linejoin="round"/>
<path d="M11.25 16.5C11.25 17.1894 11.3858 17.8721 11.6496 18.5091C11.9135 19.146 12.3002 19.7248 12.7877 20.2123C13.2752 20.6998 13.854 21.0865 14.4909 21.3504C15.1279 21.6142 15.8106 21.75 16.5 21.75C17.1894 21.75 17.8721 21.6142 18.5091 21.3504C19.146 21.0865 19.7248 20.6998 20.2123 20.2123C20.6998 19.7248 21.0865 19.146 21.3504 18.5091C21.6142 17.8721 21.75 17.1894 21.75 16.5C21.75 15.8106 21.6142 15.1279 21.3504 14.4909C21.0865 13.854 20.6998 13.2752 20.2123 12.7877C19.7248 12.3002 19.146 11.9135 18.5091 11.6496C17.8721 11.3858 17.1894 11.25 16.5 11.25C15.8106 11.25 15.1279 11.3858 14.4909 11.6496C13.854 11.9135 13.2752 12.3002 12.7877 12.7877C12.3002 13.2752 11.9135 13.854 11.6496 14.4909C11.3858 15.1279 11.25 15.8106 11.25 16.5Z" stroke="#144B3C" stroke-width="1.5" stroke-linecap="round" stroke-linejoin="round"/>
<path d="M23.2498 23.2501L20.2358 20.2361" stroke="#144B3C" stroke-width="1.5" stroke-linecap="round" stroke-linejoin="round"/>
</g>
<defs>
<clipPath id="clip0_28_1573">
<rect width="24" height="24" fill="white"/>
</clipPath>
</defs>
</svg>
