<svg width="201" height="30" viewBox="0 0 200.625 29.3099" fill="none" xmlns="http://www.w3.org/2000/svg">
<path id="Vector" d="M200.625 20.3001H194.507L187.972 11.2028V20.3001H182.808V1.13617C182.818 1.02591 182.849 0.918708 182.901 0.820763C182.953 0.722818 183.023 0.636066 183.109 0.565518C183.194 0.494971 183.292 0.442023 183.398 0.409735C183.504 0.377447 183.615 0.366457 183.725 0.377399H187.992V8.8629L194.61 0.389316H200.371L192.89 9.63756L200.625 20.3001ZM173.905 12.7124C172.773 10.6625 165.908 0.397261 165.908 0.397261H160.47V20.308H165.511V7.73071L173.854 20.3001H178.855V0.389316H173.889L173.905 12.7124ZM152.056 0.397261L158.066 20.308H152.755L151.77 16.9511H144.913L143.964 20.308H138.628L144.556 1.06863C144.613 0.857106 144.743 0.672743 144.924 0.54835C145.104 0.423957 145.323 0.367603 145.541 0.389316L152.056 0.397261ZM150.888 13.1096L148.469 4.19508H148.226L145.791 13.1096H150.888ZM137.54 14.79C137.54 18.8302 134.187 20.2961 129.638 20.2961H121.554V1.28315C121.555 1.16424 121.579 1.04661 121.625 0.937092C121.671 0.827576 121.739 0.72836 121.824 0.645201C121.909 0.562043 122.01 0.4966 122.12 0.452673C122.231 0.408746 122.349 0.38721 122.468 0.389316H129.746C133.428 0.389316 136.749 1.53343 136.749 5.33522C136.749 7.71879 135.808 9.39126 133.786 9.94345C135.903 10.3566 137.556 11.9178 137.556 14.79H137.54ZM126.309 8.38222H129.09C131.128 8.38222 132.026 7.72674 132.026 6.17344C132.026 4.62015 131.065 4.01631 129.213 4.01631H126.313L126.309 8.38222ZM132.665 14.2815C132.665 12.6051 131.68 11.898 129.583 11.898H126.297V16.6294H129.404C131.482 16.6294 132.677 15.9858 132.677 14.2815H132.665ZM22.6916 24.2131H0V29.31H22.7035L22.6916 24.2131ZM71.3561 14.5517L73.6324 20.2961H68.2813L65.9216 14.8139C65.4369 13.6976 65.0992 13.1454 64.0783 13.1454H62.0046V20.2961H56.9991V1.18781C57.0199 0.984206 57.1104 0.794015 57.2551 0.64929C57.3998 0.504565 57.59 0.414153 57.7936 0.39329H64.8609C68.6984 0.39329 71.9878 1.18781 71.9878 6.14961C71.9878 8.36633 70.7602 10.6387 68.4561 11.0995C69.5843 11.4848 70.7404 12.9547 71.368 14.5557L71.3561 14.5517ZM67.1769 6.52701C67.1769 4.60823 65.9851 4.22686 64.5033 4.22686H62.0006V9.21646H64.5033C66.001 9.21646 67.1769 8.42194 67.1769 6.52701ZM30.9745 0.389316H26.6046V20.3001H31.7332V1.18781C31.7271 0.984707 31.6463 0.790993 31.5063 0.643692C31.3663 0.496391 31.177 0.40583 30.9745 0.389316ZM52.3432 8.83509H45.8758V12.9031H48.3388V16.4148C47.6025 16.5101 46.8605 16.5539 46.1181 16.5459C42.3719 16.5459 40.3419 14.1624 40.3419 10.3169C40.3419 6.71769 42.0938 4.22686 45.8479 4.22686C47.4426 4.28715 49.0116 4.64838 50.4721 5.29152L52.4822 1.86713C50.8574 0.77466 48.3388 0.00794541 45.4666 0.00794541C38.9396 0.00794541 35.0265 4.22686 35.0265 10.3367C35.0265 17.1657 38.9396 20.7053 46.3644 20.7053C48.6418 20.7022 50.9137 20.4827 53.1496 20.0498V9.74085C53.1606 9.62751 53.148 9.51312 53.1127 9.40486C53.0773 9.29661 53.02 9.19682 52.9443 9.11177C52.8686 9.02672 52.7761 8.95824 52.6726 8.91063C52.5692 8.86302 52.457 8.8373 52.3432 8.83509ZM94.2662 10.3169C94.2662 16.0811 90.81 20.6854 84.7041 20.6854C78.185 20.6854 74.7368 16.0811 74.7368 10.3169C74.7368 4.55262 78.185 0.00794541 84.7041 0.00794541C90.81 0.00794541 94.2662 4.60823 94.2662 10.3169ZM88.8952 10.3169C88.8952 6.14564 87.0082 4.22686 84.7041 4.22686C82.0186 4.22686 80.1078 6.14564 80.1078 10.3169C80.1078 14.5557 82.0186 16.4665 84.7041 16.4665C87.0082 16.4665 88.8952 14.5557 88.8952 10.3169ZM105.405 7.86578C103.685 7.34934 102.315 6.82098 102.315 5.7881C102.315 4.75522 103.383 4.02823 105.27 4.02823C106.836 4.02823 108.234 4.66385 109.6 5.48221L112.377 2.32795C111.122 1.13617 108.659 0 105.477 0C100.662 0 96.9636 2.32795 96.9636 6.49125C96.9636 10.3566 100.309 11.5007 103.181 12.3231C105.564 13.0063 107.376 13.4155 107.376 14.7543C107.376 16.1844 105.751 16.4307 104.464 16.4307C102.196 16.4307 99.7325 15.239 98.4652 14.4881L96.1969 18.5124C97.5913 19.4698 100.718 20.6775 104.083 20.6775C109.342 20.6775 112.624 17.8529 112.624 13.7452C112.608 9.76866 108.452 8.80332 105.405 7.86578ZM11.5007 11.6318L6.81701 0.389316H0V20.3001H5.09289V8.80332L9.94346 20.3001H12.6647L17.6066 8.80332V20.3001H22.7035V0.389316H16.4029L11.5007 11.6318Z" fill="url(#paint0_linear_0_75)"/>
<defs>
<linearGradient id="paint0_linear_0_75" x1="0.54822" y1="-2.71726" x2="198.527" y2="32.1941" gradientUnits="userSpaceOnUse">
<stop stop-color="#FF8C28"/>
<stop offset="1" stop-color="#D9007E"/>
</linearGradient>
</defs>
</svg>
